<?xml version="1.0" standalone="no"?>
<!DOCTYPE svg PUBLIC "-//W3C//DTD SVG 20010904//EN"
 "http://www.w3.org/TR/2001/REC-SVG-20010904/DTD/svg10.dtd">
<svg version="1.0" xmlns="http://www.w3.org/2000/svg"
 width="1024.000000pt" height="1024.000000pt" viewBox="0 0 1024.000000 1024.000000"
 preserveAspectRatio="xMidYMid meet">

<g transform="translate(0.000000,1024.000000) scale(0.100000,-0.100000)"
fill="#000000" stroke="none">
<path d="M5040 8870 c-238 -58 -455 -225 -522 -402 -37 -98 -12 -191 64 -244
37 -26 49 -29 122 -29 95 1 139 19 219 93 47 44 83 95 217 308 64 102 179 223
238 250 23 10 42 22 42 25 1 25 -277 24 -380 -1z"/>
<path d="M5905 8805 c-267 -61 -479 -274 -542 -542 -17 -75 -18 -199 -18
-2890 0 -1546 3 -2814 6 -2818 4 -3 47 9 95 28 l89 34 5 2394 c5 2264 6 2396
23 2426 17 33 62 63 92 63 37 0 74 -30 85 -69 7 -26 10 -780 9 -2370 -1 -1283
0 -2334 3 -2336 13 -13 161 105 278 224 243 244 372 478 441 801 20 89 23 136
24 310 0 178 -3 220 -24 320 -47 229 -167 516 -298 715 -61 92 -206 279 -236
304 -12 10 -17 29 -17 68 l0 54 48 -26 c161 -88 501 -380 655 -564 203 -242
339 -525 393 -816 26 -136 26 -412 0 -540 -64 -325 -199 -607 -401 -838 -387
-443 -955 -680 -1524 -638 -462 34 -840 199 -1137 495 -166 166 -259 307 -330
502 -55 153 -69 238 -68 424 1 233 36 377 136 555 69 121 126 192 295 366 133
137 170 182 194 233 44 94 52 162 34 297 -33 253 -29 357 17 509 68 220 247
453 493 641 88 67 227 159 240 159 3 0 5 -92 5 -204 l0 -204 -91 -72 c-173
-139 -282 -306 -320 -492 -16 -81 -19 -131 -17 -315 3 -210 2 -220 -21 -278
-49 -122 -97 -181 -267 -326 -168 -144 -218 -193 -286 -284 -229 -305 -271
-707 -109 -1040 112 -229 288 -390 536 -492 201 -81 412 -108 645 -82 l100 12
2 2761 c2 1519 3 2762 2 2764 0 1 -35 -32 -77 -73 -86 -84 -141 -122 -272
-187 -92 -45 -135 -63 -400 -164 -161 -61 -424 -183 -545 -254 -576 -335
-1042 -827 -1320 -1394 -230 -470 -321 -899 -307 -1446 8 -309 34 -492 108
-752 155 -551 397 -969 794 -1377 150 -154 288 -268 465 -386 517 -343 1057
-506 1675 -508 582 -2 1147 156 1623 453 323 202 642 502 865 813 297 414 486
904 559 1449 29 219 32 631 5 812 -79 525 -271 998 -570 1400 -210 283 -407
480 -705 705 l-123 93 -52 -48 c-232 -218 -526 -425 -844 -597 l-103 -55 0
211 0 212 108 60 c247 137 408 263 538 419 157 188 232 375 241 596 5 108 2
138 -17 215 -42 166 -113 290 -231 399 -74 68 -201 141 -299 171 -75 23 -276
29 -355 10z m51 -766 c69 -25 124 -109 124 -192 0 -125 -114 -213 -242 -186
-121 26 -191 163 -139 274 46 99 153 142 257 104z m-1017 -3579 c165 -83 138
-319 -41 -359 -96 -22 -202 42 -228 139 -41 151 130 291 269 220z m-322 -539
c86 -43 140 -141 130 -233 -12 -102 -104 -199 -202 -214 -217 -32 -359 220
-217 386 74 87 190 112 289 61z"/>
</g>
</svg>
