<?xml version="1.0" standalone="no"?>
<!DOCTYPE svg PUBLIC "-//W3C//DTD SVG 20010904//EN"
 "http://www.w3.org/TR/2001/REC-SVG-20010904/DTD/svg10.dtd">
<svg version="1.0" xmlns="http://www.w3.org/2000/svg"
 width="1024.000000pt" height="1024.000000pt" viewBox="0 0 1024.000000 1024.000000"
 preserveAspectRatio="xMidYMid meet">

<g transform="translate(0.000000,1024.000000) scale(0.100000,-0.100000)"
fill="#003932" stroke="none">
<path d="M4885 8713 c-314 -26 -726 -124 -1030 -245 -216 -86 -524 -251 -746
-402 -334 -225 -679 -566 -917 -906 -547 -779 -747 -1739 -566 -2718 106 -577
377 -1151 762 -1612 361 -433 776 -740 1327 -980 264 -115 654 -224 960 -269
617 -92 1237 -17 1858 223 898 347 1642 1088 1994 1986 265 675 330 1426 182
2105 -128 585 -388 1097 -803 1584 -502 590 -1240 1021 -2006 1171 -278 54
-354 62 -670 65 -162 1 -317 1 -345 -2z m298 -628 c7 -66 43 -149 83 -189 36
-36 98 -64 159 -72 35 -5 45 -11 43 -23 -2 -11 -18 -18 -53 -21 -128 -14 -211
-103 -233 -250 -4 -28 -11 -51 -17 -51 -5 0 -13 24 -18 53 -10 68 -45 145 -86
185 -34 35 -111 63 -169 63 -54 0 -38 30 26 46 129 33 196 100 222 221 19 87
20 93 29 93 4 0 11 -25 14 -55z m-602 -25 c26 -14 25 -56 -2 -70 -16 -9 -25
-8 -40 6 -23 21 -24 32 -2 56 19 21 19 21 44 8z m1435 -178 c5 -4 18 -18 27
-32 62 -91 -61 -195 -135 -114 -37 42 -27 116 19 143 21 12 73 14 89 3z
m-2266 -31 c24 -45 6 -91 -35 -91 -28 0 -45 18 -45 49 0 51 58 81 80 42z
m3136 -126 c42 -66 154 -244 249 -395 95 -151 228 -363 295 -470 68 -107 155
-247 193 -310 39 -63 120 -193 180 -288 60 -95 108 -174 106 -176 -2 -2 -62
-41 -133 -87 -80 -51 -131 -79 -134 -71 -6 20 -101 162 -108 162 -3 0 -28 -16
-55 -36 l-48 -35 -27 43 c-15 24 -58 91 -96 150 -38 59 -71 113 -73 120 -3 8
15 24 42 40 27 15 54 32 62 36 13 10 -23 72 -223 380 l-67 104 -26 -17 c-14
-10 -41 -26 -58 -36 l-32 -19 -174 262 c-96 144 -191 288 -211 319 l-38 58 65
36 64 36 -50 76 c-27 42 -46 80 -42 84 17 16 248 158 255 156 4 -1 41 -56 84
-122z m-2503 -90 c11 -104 80 -216 158 -256 21 -10 61 -24 89 -30 27 -6 50
-16 50 -23 0 -6 -27 -17 -60 -23 -140 -27 -216 -115 -237 -275 -8 -66 -29 -62
-36 7 -8 75 -52 169 -99 209 -39 34 -80 50 -155 62 -59 9 -55 30 9 43 66 15
151 63 183 105 30 39 51 97 60 163 8 60 12 73 23 73 5 0 12 -25 15 -55z m-916
-144 c13 -28 4 -55 -26 -70 -25 -14 -61 13 -61 44 0 54 63 72 87 26z m3127
-492 c92 -138 166 -255 164 -260 -3 -8 -280 -187 -301 -194 -11 -4 -329 478
-334 507 -2 7 44 42 104 78 58 36 125 77 147 92 23 14 44 27 47 27 3 1 81
-112 173 -250z m-717 86 c33 -49 102 -157 155 -240 52 -82 196 -307 318 -500
437 -686 531 -838 523 -845 -4 -4 -61 -41 -125 -83 -74 -48 -118 -71 -121 -63
-3 7 -30 51 -61 99 l-57 87 -37 -24 c-20 -13 -101 -64 -179 -114 l-142 -90
-57 90 c-31 49 -57 96 -58 105 -1 9 63 54 171 120 l172 105 -63 101 c-54 88
-252 394 -262 406 -2 2 -12 -2 -21 -11 -22 -18 -338 -208 -347 -208 -5 0 -332
490 -379 566 -7 11 36 40 271 184 98 60 102 63 89 84 -84 127 -107 168 -102
175 3 5 47 35 98 66 50 32 103 65 117 75 14 10 28 15 31 11 4 -3 33 -46 66
-96z m-2258 0 c154 -49 278 -160 356 -320 146 -299 66 -669 -194 -907 -88 -80
-159 -123 -263 -159 -293 -101 -591 -26 -801 201 -69 74 -103 130 -141 235
-25 69 -30 98 -34 211 -3 85 0 138 7 150 8 15 10 7 11 -41 1 -152 66 -305 182
-430 82 -88 167 -145 279 -187 144 -53 360 -51 494 5 99 41 264 155 278 191 4
9 -17 11 -82 8 -169 -8 -296 43 -421 168 -159 159 -222 368 -171 569 31 123
87 210 175 270 95 66 195 77 325 36z m1477 0 c14 -21 14 -30 4 -54 -24 -59
-100 -43 -100 20 0 57 65 81 96 34z m-574 -402 c25 -22 24 -79 -1 -93 -27 -14
-47 -13 -65 6 -24 23 -20 70 6 88 28 20 37 20 60 -1z m831 -505 c84 -128 156
-238 160 -244 8 -13 3 -16 -383 -254 -140 -87 -347 -215 -460 -285 -113 -70
-230 -143 -260 -161 -30 -18 -93 -57 -140 -87 l-85 -53 -149 225 c-145 219
-174 267 -165 275 13 11 378 236 634 391 165 100 388 236 495 303 107 66 196
121 198 121 2 1 72 -104 155 -231z m1774 -18 c27 -41 52 -80 56 -86 4 -8 -50
-48 -144 -108 -83 -53 -154 -96 -157 -96 -9 0 -126 179 -121 184 21 21 305
193 310 188 3 -4 29 -41 56 -82z m817 -552 c15 -25 -4 -53 -35 -53 -25 0 -37
30 -25 61 8 20 46 14 60 -8z m-5504 -173 c15 -55 54 -91 110 -100 55 -9 51
-30 -9 -45 -58 -14 -85 -40 -100 -97 -14 -52 -36 -56 -45 -8 -11 57 -49 92
-112 105 -32 7 -54 16 -51 23 2 6 29 19 62 30 56 19 59 22 84 78 14 33 31 59
37 59 6 0 17 -20 24 -45z m4949 -32 c23 -28 21 -54 -7 -85 -22 -26 -57 -22
-81 8 -26 33 -27 58 -1 84 28 28 64 25 89 -7z m-1451 -100 c34 -51 62 -95 62
-98 0 -6 -89 -64 -345 -223 -99 -62 -191 -121 -205 -131 l-24 -19 29 -54 c27
-48 30 -61 30 -148 0 -89 -3 -99 -34 -158 -41 -75 -94 -125 -170 -161 -49 -23
-68 -26 -161 -26 -97 0 -109 2 -158 29 -51 29 -99 74 -133 126 l-16 25 -81
-52 -81 -52 -61 101 c-33 56 -60 104 -60 107 0 3 110 73 243 155 665 410 958
592 1022 635 39 26 73 45 76 42 3 -3 34 -48 67 -98z m-2018 -140 c63 -97 116
-182 118 -187 1 -6 -59 -49 -135 -96 -76 -46 -169 -103 -206 -127 -37 -24 -70
-43 -72 -43 -7 0 -245 358 -245 367 0 7 407 260 420 262 3 1 57 -79 120 -176z
m4200 102 c18 -22 15 -66 -6 -82 -27 -20 -56 -12 -73 18 -13 24 -13 29 2 53
20 29 57 35 77 11z m-4763 -488 c85 -133 181 -280 212 -327 69 -101 339 -533
343 -549 3 -10 -225 -162 -240 -161 -4 1 -30 38 -58 83 -49 78 -249 393 -413
652 -42 66 -138 214 -214 329 -103 154 -136 211 -127 220 6 6 61 43 123 82
l112 71 53 -80 c30 -43 123 -187 209 -320z m3064 181 c14 -91 76 -190 142
-225 17 -8 51 -18 76 -22 32 -4 47 -11 49 -24 3 -13 -3 -17 -25 -17 -39 -1
-97 -23 -143 -55 -49 -34 -87 -109 -98 -189 -9 -77 -27 -83 -35 -12 -14 139
-99 228 -239 251 -56 9 -48 31 14 45 58 12 121 45 155 82 31 33 63 110 70 168
7 62 25 61 34 -2z m759 -83 c17 -21 -2 -65 -29 -65 -30 0 -46 26 -33 55 13 28
43 33 62 10z m634 -81 c17 -146 115 -248 259 -269 58 -9 63 -31 10 -40 -158
-26 -250 -126 -269 -294 -9 -79 -29 -81 -38 -3 -10 89 -34 147 -82 200 -52 59
-99 83 -174 91 -80 9 -72 29 20 52 129 33 198 101 226 224 21 93 22 95 32 95
5 0 12 -25 16 -56z m-3490 -261 c33 -53 55 -98 49 -100 -13 -5 -284 -175 -353
-223 l-54 -37 -58 90 c-32 50 -58 94 -58 98 0 4 59 45 132 90 72 46 163 105
202 131 39 25 73 47 76 47 3 0 32 -43 64 -96z m-1317 -88 c38 -55 72 -105 76
-111 6 -11 -63 -61 -244 -177 -48 -30 -90 -60 -93 -66 -4 -6 -12 -11 -17 -11
-9 0 -156 218 -162 240 -1 5 68 51 153 103 85 52 166 104 180 115 14 11 28 17
31 14 3 -4 37 -52 76 -107z m4051 -91 c7 -22 22 -56 35 -75 25 -38 97 -79 139
-79 42 0 35 -26 -9 -35 -92 -16 -154 -80 -169 -174 -7 -46 -24 -55 -24 -13 0
41 -44 126 -78 150 -16 12 -53 27 -81 33 -28 6 -51 14 -51 19 0 5 26 16 58 25
86 26 152 107 152 191 0 27 15 5 28 -42z m-4650 -116 c105 -160 401 -621 434
-674 l18 -31 -107 -71 c-67 -44 -110 -66 -112 -59 -5 13 -108 178 -282 449
-214 331 -253 395 -249 404 3 5 47 37 100 71 52 33 95 62 96 62 1 1 46 -68
102 -151z m3147 -128 c174 -421 765 -1898 765 -1913 0 -4 -57 -7 -127 -7
l-128 0 -39 93 c-21 50 -74 182 -117 292 -102 261 -203 520 -329 840 -56 143
-124 319 -150 390 -26 72 -62 165 -79 208 -17 43 -31 81 -31 85 0 8 117 37
133 33 5 -1 6 3 2 9 -3 5 0 10 8 10 8 0 22 9 32 20 23 25 26 21 60 -60z
m-2294 -140 c-32 -23 -125 -83 -282 -183 l-56 -36 -52 81 -52 80 23 17 c13 9
75 49 138 90 63 40 138 88 165 105 l50 33 51 -80 52 -81 -37 -26z m1618 140
c45 0 81 -3 81 -7 0 -11 -121 -368 -165 -488 -39 -106 -63 -172 -283 -800 -77
-220 -158 -449 -180 -510 l-40 -110 -131 -3 -131 -3 51 143 c28 79 81 231 119
338 70 200 145 410 315 885 83 230 180 489 215 573 l10 23 29 -20 c24 -17 44
-21 110 -21z m1483 -207 c20 -18 24 -63 6 -81 -7 -7 -24 -12 -40 -12 -48 0
-66 66 -26 94 28 20 37 20 60 -1z m-1197 -81 l100 -67 5 -120 c3 -66 7 -418 8
-782 l3 -663 -120 0 -120 0 -1 383 c-1 480 11 1317 19 1316 3 0 51 -30 106
-67z m2176 -149 c30 -18 59 -67 59 -100 0 -37 -38 -82 -79 -93 -45 -12 -76 -3
-108 31 -47 52 -34 120 30 159 39 24 61 25 98 3z"/>
<path d="M5210 4713 c-8 -3 -59 -35 -113 -70 l-98 -63 21 -30 c62 -87 188 -77
243 18 14 23 17 42 13 67 -8 42 -45 85 -66 78z"/>
<path d="M4913 4045 c0 -8 4 -15 9 -15 4 0 8 4 8 9 0 6 -4 12 -8 15 -5 3 -9
-1 -9 -9z"/>
</g>
</svg>
